<?xml version="1.0" encoding="utf-8"?>
<svg id="master-artboard" viewBox="0 0 234.53012084960938 189.32882690429688" version="1.1" xmlns="http://www.w3.org/2000/svg" x="0px" y="0px" width="234.53012084960938px" height="189.32882690429688px" enable-background="new 0 0 1400 980"><rect id="ee-background" x="0" y="0" width="234.53012084960938" height="189.32882690429688" style="fill: white; fill-opacity: 0; pointer-events: none;"/>
<g transform="matrix(0.2890002727508545, 0.17319802939891815, -0.17319802939891815, 0.2890002727508545, -36.8664665222168, -190.15237426757812)">
				<path fill="#FF9494" d="M1034.2,603.9c-43.2,0-78.4-35.2-78.4-78.4s35.2-78.4,78.4-78.4c43.2,0,78.4,35.2,78.4,78.4&#10;&#9;&#9;&#9;&#9;&#9;S1077.4,603.9,1034.2,603.9z M1034.2,461.9c-35.1,0-63.6,28.5-63.6,63.6s28.5,63.6,63.6,63.6s63.6-28.5,63.6-63.6&#10;&#9;&#9;&#9;&#9;&#9;S1069.2,461.9,1034.2,461.9z"/>
				<path fill="#FA7F7F" d="M1112.6,525.5c0-43.2-35.2-78.4-78.4-78.4c0,0,0,0,0,0v14.8c0,0,0,0,0,0c35.1,0,63.6,28.5,63.6,63.6&#10;&#9;&#9;&#9;&#9;&#9;s-28.5,63.6-63.6,63.6c0,0,0,0,0,0v14.8c0,0,0,0,0,0C1077.4,603.9,1112.6,568.7,1112.6,525.5z"/>
				<path d="M 1056.199951171875 400.1000061035156 L 1034.199951171875 400.1000061035156 L 1012.2000122070312 400.1000061035156 L 998.5 417.79998779296875 L 1034.199951171875 447.1000061035156 L 1069.9000244140625 417.79998779296875 Z" fill="#BE1E2D"/>
				<path d="M 1034.199951171875 447.1000061035156 L 1034.199951171875 400.1000061035156 L 1056.199951171875 400.1000061035156 L 1069.9000244140625 417.79998779296875 Z" fill="#A41E2D"/>
			</g><path fill="#A41E2D" d="M746.8,560.2H595.1c-4.2,0-7.7-3.4-7.7-7.7l0,0c0-4.2,3.4-7.7,7.7-7.7h151.7c4.2,0,7.7,3.4,7.7,7.7l0,0&#10;&#9;&#9;&#9;&#9;&#9;C754.5,556.8,751,560.2,746.8,560.2z" transform="matrix(1, 0, 0, 1, -580.1678829193115, -378.22149658203125)"/><path fill="#FF9494" d="M741.5,544.8H600.4V497c0-4.3,3.5-7.9,7.9-7.9h125.4c4.3,0,7.9,3.5,7.9,7.9V544.8z" transform="matrix(1, 0, 0, 1, -580.1678829193115, -378.22149658203125)"/><path fill="#FA7F7F" d="M733.7,489.2H671v55.7h70.6V497C741.5,492.7,738,489.2,733.7,489.2z" transform="matrix(1, 0, 0, 1, -580.1678829193115, -378.22149658203125)"/><path fill="#A41E2D" d="M730,481.6H614.4c-2.1,0-3.8,1.7-3.8,3.8l0,0c0,2.1,1.7,3.8,3.8,3.8H730c2.1,0,3.8-1.7,3.8-3.8l0,0&#10;&#9;&#9;&#9;&#9;&#9;C733.8,483.3,732.1,481.6,730,481.6z" transform="matrix(1, 0, 0, 1, -580.1678829193115, -378.22149658203125)"/><path d="M 669.299988 420 H 675.199988 V 474.299999 H 669.299988 V 420 Z" fill="#FA7F7F" transform="matrix(1, 0, 0, 1, -580.1678829193115, -378.22149658203125)"/><path fill="#BE1E2D" d="M689.5,388.4c-12.3-3.5-18.6,10.9-18.6,10.9s-6.3-14.4-18.6-10.9c-17.3,5-10.9,36.5,18.6,44.9&#10;&#9;&#9;&#9;&#9;&#9;C700.4,424.9,706.9,393.4,689.5,388.4z" transform="matrix(1, 0, 0, 1, -580.1678829193115, -378.22149658203125)"/><path fill="#A41E2D" d="M671,399.3c0,0,6.3-14.4,18.6-10.9c17.3,5,10.9,36.5-18.6,44.9V399.3z" transform="matrix(1, 0, 0, 1, -580.1678829193115, -378.22149658203125)"/><path fill="#FF9494" d="M723.9,481.5H618v-33.9c0-4.3,3.5-7.9,7.9-7.9H716c4.3,0,7.9,3.5,7.9,7.9V481.5z" transform="matrix(1, 0, 0, 1, -580.1678829193115, -378.22149658203125)"/><path fill="#FA7F7F" d="M718,439.7h-47v41.8h52.9v-35.9C723.9,442.4,721.2,439.7,718,439.7z" transform="matrix(1, 0, 0, 1, -580.1678829193115, -378.22149658203125)"/><path d="M 1034.199951171875 344.20001220703125 L 1036.699951171875 367.1000061035156 L 1059.5 369.6000061035156 L 1036.699951171875 372.1000061035156 L 1034.199951171875 394.8999938964844 L 1031.699951171875 372.1000061035156 L 1008.7999877929688 369.6000061035156 L 1031.699951171875 367.1000061035156 Z" fill="#BE1E2D" transform="matrix(0.5949334502220154, 0, 0, 0.5949334502220154, -397.44305992126465, -115.57623291015625)"/>
</svg>